# xmcd
#
# Track frame offsets:
#	150
#	14745
#	34627
#	52405
#	74307
#	86327
#	113130
#	132175
#	151230
#
# Disc length: 2315 seconds
#
# Revision: 1
# Processed by: cddbd v1.4b42PL1 Copyright (c) Steve Scherf et al.
# Submitted via: CDmax 1.8
#
DISCID=75090909
DTITLE=John Mayall - Road Show
DYEAR=1900
DGENRE=
TTITLE0=Why worry
TTITLE1=Road show
TTITLE2=Mama talk to your daugther
TTITLE3=A big man
TTITLE4=Lost and gone
TTITLE5=Mexico city
TTITLE6=Jhon lLee Boogie
TTITLE7=Reaching for a  mountain
TTITLE8=Boby what you want me to do
EXTD=
EXTT0=
EXTT1=
EXTT2=
EXTT3=
EXTT4=
EXTT5=
EXTT6=
EXTT7=
EXTT8=
PLAYORDER=
